<svg xmlns:xlink="http://www.w3.org/1999/xlink" xmlns="http://www.w3.org/2000/svg" width="24" height="24" viewBox="0 0 24 24" id="article-copy-icon" role="img" aria-labelledby="a9laphxq38brrw85qlbz4k4pgbdlpa79" aria-hidden="true" class="crayons-icon mx-2 shrink-0"><title id="a9laphxq38brrw85qlbz4k4pgbdlpa79">Copy link</title>
    <path d="M7 6V3a1 1 0 011-1h12a1 1 0 011 1v14a1 1 0 01-1 1h-3v3c0 .552-.45 1-1.007 1H4.007A1 1 0 013 21l.003-14c0-.552.45-1 1.007-1H7zm2 0h8v10h2V4H9v2zm-2 5v2h6v-2H7zm0 4v2h6v-2H7z" fill="#404040"></path>
</svg>